<svg version="1.1" xmlns="http://www.w3.org/2000/svg" xmlns:xlink="http://www.w3.org/1999/xlink" width="1332.22509765625" height="800"><defs/><g><g transform="translate(-22,-30) scale(1,1)"><rect fill="#C0C0C0" stroke="none" x="463" y="47" width="50.919921875" height="44" opacity="0.2"/></g><g transform="translate(-22,-30) scale(1,1)"><rect fill="#ffffff" stroke="none" x="456" y="40" width="50.919921875" height="44"/></g><g transform="translate(-22,-30) scale(1,1)"><path fill="none" stroke="#000000" d="M 456 40 L 506.919921875 40 L 506.919921875 84 L 456 84 L 456 40 Z Z" stroke-miterlimit="10"/></g><g transform="translate(-22,-30) scale(1,1)"><path fill="none" stroke="#000000" d="M 456 65 L 506.919921875 65" stroke-miterlimit="10"/></g><g transform="translate(-22,-30) scale(1,1)"><path fill="none" stroke="#000000" d="M 456 75 L 506.919921875 75" stroke-miterlimit="10"/></g><g transform="translate(-22,-30) scale(1,1)"><g><path fill="none" stroke="none"/><text fill="#000000" stroke="none" font-family="Arial" font-size="13px" font-style="normal" font-weight="bold" text-decoration="none" x="467.371337890625" y="59.5">main</text></g></g><g transform="translate(-22,-30) scale(1,1)"><rect fill="#C0C0C0" stroke="none" x="399" y="279" width="209.52880859375" height="87" opacity="0.2"/></g><g transform="translate(-22,-30) scale(1,1)"><rect fill="#ffffff" stroke="none" x="392" y="272" width="209.52880859375" height="87"/></g><g transform="translate(-22,-30) scale(1,1)"><path fill="none" stroke="#000000" d="M 392 272 L 601.52880859375 272 L 601.52880859375 359 L 392 359 L 392 272 Z Z" stroke-miterlimit="10"/></g><g transform="translate(-22,-30) scale(1,1)"><path fill="none" stroke="#000000" d="M 392 297 L 601.52880859375 297" stroke-miterlimit="10"/></g><g transform="translate(-22,-30) scale(1,1)"><path fill="none" stroke="#000000" d="M 392 307 L 601.52880859375 307" stroke-miterlimit="10"/></g><g transform="translate(-22,-30) scale(1,1)"><g><path fill="none" stroke="none"/><text fill="#000000" stroke="none" font-family="Arial" font-size="13px" font-style="italic" font-weight="bold" text-decoration="none" x="447.98583984375" y="291.5">ChatBotInterface</text></g></g><g transform="translate(-22,-30) scale(1,1)"><g><path fill="none" stroke="none"/><text fill="#000000" stroke="none" font-family="Arial" font-size="13px" font-style="normal" font-weight="normal" text-decoration="none" x="397" y="324.5">+CheckRequestSignature()</text></g></g><g transform="translate(-22,-30) scale(1,1)"><g><path fill="none" stroke="none"/><text fill="#000000" stroke="none" font-family="Arial" font-size="13px" font-style="normal" font-weight="normal" text-decoration="none" x="397" y="339.5">+ReplyMessage()</text></g></g><g transform="translate(-22,-30) scale(1,1)"><g><path fill="none" stroke="none"/><text fill="#000000" stroke="none" font-family="Arial" font-size="13px" font-style="normal" font-weight="normal" text-decoration="none" x="397" y="354.5">+PushMessage(msg, talkerID)</text></g></g><g transform="translate(-22,-30) scale(1,1)"><rect fill="#C0C0C0" stroke="none" x="335" y="431" width="86.27001953125" height="44" opacity="0.2"/></g><g transform="translate(-22,-30) scale(1,1)"><rect fill="#ffffff" stroke="none" x="328" y="424" width="86.27001953125" height="44"/></g><g transform="translate(-22,-30) scale(1,1)"><path fill="none" stroke="#000000" d="M 328 424 L 414.27001953125 424 L 414.27001953125 468 L 328 468 L 328 424 Z Z" stroke-miterlimit="10"/></g><g transform="translate(-22,-30) scale(1,1)"><path fill="none" stroke="#000000" d="M 328 449 L 414.27001953125 449" stroke-miterlimit="10"/></g><g transform="translate(-22,-30) scale(1,1)"><path fill="none" stroke="#000000" d="M 328 459 L 414.27001953125 459" stroke-miterlimit="10"/></g><g transform="translate(-22,-30) scale(1,1)"><g><path fill="none" stroke="none"/><text fill="#000000" stroke="none" font-family="Arial" font-size="13px" font-style="normal" font-weight="bold" text-decoration="none" x="335.359619140625" y="443.5">LineChatBot</text></g></g><g transform="translate(-22,-30) scale(1,1)"><rect fill="#C0C0C0" stroke="none" x="591" y="423" width="75.42822265625" height="44" opacity="0.2"/></g><g transform="translate(-22,-30) scale(1,1)"><rect fill="#ffffff" stroke="none" x="584" y="416" width="75.42822265625" height="44"/></g><g transform="translate(-22,-30) scale(1,1)"><path fill="none" stroke="#000000" d="M 584 416 L 659.42822265625 416 L 659.42822265625 460 L 584 460 L 584 416 Z Z" stroke-miterlimit="10"/></g><g transform="translate(-22,-30) scale(1,1)"><path fill="none" stroke="#000000" d="M 584 441 L 659.42822265625 441" stroke-miterlimit="10"/></g><g transform="translate(-22,-30) scale(1,1)"><path fill="none" stroke="#000000" d="M 584 451 L 659.42822265625 451" stroke-miterlimit="10"/></g><g transform="translate(-22,-30) scale(1,1)"><g><path fill="none" stroke="none"/><text fill="#000000" stroke="none" font-family="Arial" font-size="13px" font-style="normal" font-weight="bold" text-decoration="none" x="590.642333984375" y="435.5">FbChatBot</text></g></g><g transform="translate(-22,-30) scale(1,1)"><path fill="none" stroke="#000000" d="M 368 424 L 368 400 L 496 400 L 496 359" stroke-miterlimit="10"/></g><g transform="translate(-22,-30) scale(1,1)"><path fill="#FFFFFF" stroke="none" d="M 504.419035512032 379.3253497152483 L 496 359 L 487.580964487968 379.3253497152483"/></g><g transform="translate(-22,-30) scale(1,1)"><path fill="none" stroke="#000000" d="M 504.419035512032 379.3253497152483 L 496 359 L 487.580964487968 379.3253497152483 L 504.419035512032 379.3253497152483" stroke-miterlimit="10"/></g><g transform="translate(-22,-30) scale(1,1)"><path fill="none" stroke="#000000" d="M 621 416 L 621 400 L 496 400 L 496 359" stroke-miterlimit="10"/></g><g transform="translate(-22,-30) scale(1,1)"><path fill="#FFFFFF" stroke="none" d="M 504.419035512032 379.3253497152483 L 496 359 L 487.580964487968 379.3253497152483"/></g><g transform="translate(-22,-30) scale(1,1)"><path fill="none" stroke="#000000" d="M 504.419035512032 379.3253497152483 L 496 359 L 487.580964487968 379.3253497152483 L 504.419035512032 379.3253497152483" stroke-miterlimit="10"/></g><g transform="translate(-22,-30) scale(1,1)"><rect fill="#C0C0C0" stroke="none" x="311" y="663" width="190.30810546875" height="44" opacity="0.2"/></g><g transform="translate(-22,-30) scale(1,1)"><rect fill="#ffffff" stroke="none" x="304" y="656" width="190.30810546875" height="44"/></g><g transform="translate(-22,-30) scale(1,1)"><path fill="none" stroke="#000000" d="M 304 656 L 494.30810546875 656 L 494.30810546875 700 L 304 700 L 304 656 Z Z" stroke-miterlimit="10"/></g><g transform="translate(-22,-30) scale(1,1)"><path fill="none" stroke="#000000" d="M 304 681 L 494.30810546875 681" stroke-miterlimit="10"/></g><g transform="translate(-22,-30) scale(1,1)"><path fill="none" stroke="#000000" d="M 304 691 L 494.30810546875 691" stroke-miterlimit="10"/></g><g transform="translate(-22,-30) scale(1,1)"><g><path fill="none" stroke="none"/><text fill="#000000" stroke="none" font-family="Arial" font-size="13px" font-style="normal" font-weight="bold" text-decoration="none" x="314.61279296875" y="675.5">LineChatBotBaseMsgFactory</text></g></g><g transform="translate(-22,-30) scale(1,1)"><rect fill="#C0C0C0" stroke="none" x="367" y="759" width="217.7744140625" height="57" opacity="0.2"/></g><g transform="translate(-22,-30) scale(1,1)"><rect fill="#ffffff" stroke="none" x="360" y="752" width="217.7744140625" height="57"/></g><g transform="translate(-22,-30) scale(1,1)"><path fill="none" stroke="#000000" d="M 360 752 L 577.7744140625 752 L 577.7744140625 809 L 360 809 L 360 752 Z Z" stroke-miterlimit="10"/></g><g transform="translate(-22,-30) scale(1,1)"><path fill="none" stroke="#000000" d="M 360 777 L 577.7744140625 777" stroke-miterlimit="10"/></g><g transform="translate(-22,-30) scale(1,1)"><path fill="none" stroke="#000000" d="M 360 787 L 577.7744140625 787" stroke-miterlimit="10"/></g><g transform="translate(-22,-30) scale(1,1)"><g><path fill="none" stroke="none"/><text fill="#000000" stroke="none" font-family="Arial" font-size="13px" font-style="italic" font-weight="bold" text-decoration="none" x="371.3427734375" y="771.5">ChatBotBaseMsgFactoryInterface</text></g></g><g transform="translate(-22,-30) scale(1,1)"><g><path fill="none" stroke="none"/><text fill="#000000" stroke="none" font-family="Arial" font-size="13px" font-style="italic" font-weight="normal" text-decoration="none" x="365" y="804.5">+GenerateBaseMsg(baseMsg)</text></g></g><g transform="translate(-22,-30) scale(1,1)"><path fill="none" stroke="#000000" d="M 424 700 L 424 752" stroke-miterlimit="10"/></g><g transform="translate(-22,-30) scale(1,1)"><path fill="#FFFFFF" stroke="none" d="M 415.580964487968 731.6746502847517 L 424 752 L 432.419035512032 731.6746502847517"/></g><g transform="translate(-22,-30) scale(1,1)"><path fill="none" stroke="#000000" d="M 415.580964487968 731.6746502847517 L 424 752 L 432.419035512032 731.6746502847517 L 415.580964487968 731.6746502847517" stroke-miterlimit="10"/></g><g transform="translate(-22,-30) scale(1,1)"><path fill="none" stroke="#000000" d="M 352 656 L 352 468" stroke-miterlimit="10"/></g><g transform="translate(-22,-30) scale(1,1)"><path fill="#000000" stroke="none" d="M 356.209517756016 478.16267485762415 L 352 468 L 347.790482243984 478.16267485762415 L 352 490"/></g><g transform="translate(-22,-30) scale(1,1)"><path fill="none" stroke="#000000" d="M 356.209517756016 478.16267485762415 L 352 468 L 347.790482243984 478.16267485762415 L 352 490 L 356.209517756016 478.16267485762415" stroke-miterlimit="10"/></g><g transform="translate(-22,-30) scale(1,1)"><path fill="none" stroke="#000000" d="M 616 656 L 616 460" stroke-miterlimit="10"/></g><g transform="translate(-22,-30) scale(1,1)"><path fill="#000000" stroke="none" d="M 620.209517756016 470.16267485762415 L 616 460 L 611.790482243984 470.16267485762415 L 616 482"/></g><g transform="translate(-22,-30) scale(1,1)"><path fill="none" stroke="#000000" d="M 620.209517756016 470.16267485762415 L 616 460 L 611.790482243984 470.16267485762415 L 616 482 L 620.209517756016 470.16267485762415" stroke-miterlimit="10"/></g><g transform="translate(-22,-30) scale(1,1)"><rect fill="#C0C0C0" stroke="none" x="535" y="663" width="190.30810546875" height="44" opacity="0.2"/></g><g transform="translate(-22,-30) scale(1,1)"><rect fill="#ffffff" stroke="none" x="528" y="656" width="190.30810546875" height="44"/></g><g transform="translate(-22,-30) scale(1,1)"><path fill="none" stroke="#000000" d="M 528 656 L 718.30810546875 656 L 718.30810546875 700 L 528 700 L 528 656 Z Z" stroke-miterlimit="10"/></g><g transform="translate(-22,-30) scale(1,1)"><path fill="none" stroke="#000000" d="M 528 681 L 718.30810546875 681" stroke-miterlimit="10"/></g><g transform="translate(-22,-30) scale(1,1)"><path fill="none" stroke="#000000" d="M 528 691 L 718.30810546875 691" stroke-miterlimit="10"/></g><g transform="translate(-22,-30) scale(1,1)"><g><path fill="none" stroke="none"/><text fill="#000000" stroke="none" font-family="Arial" font-size="13px" font-style="normal" font-weight="bold" text-decoration="none" x="543.31640625" y="675.5">FbChatBotBaseMsgFactory</text></g></g><g transform="translate(-22,-30) scale(1,1)"><path fill="none" stroke="#000000" d="M 568 700 L 568 752" stroke-miterlimit="10"/></g><g transform="translate(-22,-30) scale(1,1)"><path fill="#FFFFFF" stroke="none" d="M 559.580964487968 731.6746502847517 L 568 752 L 576.419035512032 731.6746502847517"/></g><g transform="translate(-22,-30) scale(1,1)"><path fill="none" stroke="#000000" d="M 559.580964487968 731.6746502847517 L 568 752 L 576.419035512032 731.6746502847517 L 559.580964487968 731.6746502847517" stroke-miterlimit="10"/></g><g transform="translate(-22,-30) scale(1,1)"><rect fill="#C0C0C0" stroke="none" x="391" y="527" width="204.46337890625" height="72" opacity="0.2"/></g><g transform="translate(-22,-30) scale(1,1)"><rect fill="#ffffff" stroke="none" x="384" y="520" width="204.46337890625" height="72"/></g><g transform="translate(-22,-30) scale(1,1)"><path fill="none" stroke="#000000" d="M 384 520 L 588.46337890625 520 L 588.46337890625 592 L 384 592 L 384 520 Z Z" stroke-miterlimit="10"/></g><g transform="translate(-22,-30) scale(1,1)"><path fill="none" stroke="#000000" d="M 384 545 L 588.46337890625 545" stroke-miterlimit="10"/></g><g transform="translate(-22,-30) scale(1,1)"><path fill="none" stroke="#000000" d="M 384 555 L 588.46337890625 555" stroke-miterlimit="10"/></g><g transform="translate(-22,-30) scale(1,1)"><g><path fill="none" stroke="none"/><text fill="#000000" stroke="none" font-family="Arial" font-size="13px" font-style="normal" font-weight="bold" text-decoration="none" x="412.1767578125" y="539.5">ChatBotReplyMsgFactory</text></g></g><g transform="translate(-22,-30) scale(1,1)"><g><path fill="none" stroke="none"/><text fill="#000000" stroke="none" font-family="Arial" font-size="13px" font-style="normal" font-weight="normal" text-decoration="none" x="389" y="572.5">+generateLinkButtonMsg(title, uri)</text></g></g><g transform="translate(-22,-30) scale(1,1)"><g><path fill="none" stroke="none"/><text fill="#000000" stroke="none" font-family="Arial" font-size="13px" font-style="normal" font-weight="normal" text-decoration="none" x="389" y="587.5">+generateTextMsg(text)</text></g></g><g transform="translate(-22,-30) scale(1,1)"><path fill="none" stroke="#000000" d="M 488 520 L 488 496 L 352 496 L 352 468" stroke-miterlimit="10"/></g><g transform="translate(-22,-30) scale(1,1)"><path fill="#000000" stroke="none" d="M 356.209517756016 478.16267485762415 L 352 468 L 347.790482243984 478.16267485762415 L 352 490"/></g><g transform="translate(-22,-30) scale(1,1)"><path fill="none" stroke="#000000" d="M 356.209517756016 478.16267485762415 L 352 468 L 347.790482243984 478.16267485762415 L 352 490 L 356.209517756016 478.16267485762415" stroke-miterlimit="10"/></g><g transform="translate(-22,-30) scale(1,1)"><path fill="none" stroke="#000000" d="M 488 520 L 488 496 L 616 496 L 616 460" stroke-miterlimit="10"/></g><g transform="translate(-22,-30) scale(1,1)"><path fill="#000000" stroke="none" d="M 620.209517756016 470.16267485762415 L 616 460 L 611.790482243984 470.16267485762415 L 616 482"/></g><g transform="translate(-22,-30) scale(1,1)"><path fill="none" stroke="#000000" d="M 620.209517756016 470.16267485762415 L 616 460 L 611.790482243984 470.16267485762415 L 616 482 L 620.209517756016 470.16267485762415" stroke-miterlimit="10"/></g><g transform="translate(-22,-30) scale(1,1)"><path fill="none" stroke="#000000" d="M 504 592 L 504 752" stroke-miterlimit="10"/></g><g transform="translate(-22,-30) scale(1,1)"><path fill="none" stroke="#000000" d="M 499.790482243984 741.8373251423759 L 504 752 L 508.209517756016 741.8373251423759" stroke-miterlimit="10"/></g><g transform="translate(-22,-30) scale(1,1)"><rect fill="#C0C0C0" stroke="none" x="735" y="623" width="218.16162109375" height="117" opacity="0.2"/></g><g transform="translate(-22,-30) scale(1,1)"><rect fill="#ffffff" stroke="none" x="728" y="616" width="218.16162109375" height="117"/></g><g transform="translate(-22,-30) scale(1,1)"><path fill="none" stroke="#000000" d="M 728 616 L 946.16162109375 616 L 946.16162109375 733 L 728 733 L 728 616 Z Z" stroke-miterlimit="10"/></g><g transform="translate(-22,-30) scale(1,1)"><path fill="none" stroke="#000000" d="M 728 641 L 946.16162109375 641" stroke-miterlimit="10"/></g><g transform="translate(-22,-30) scale(1,1)"><path fill="none" stroke="#000000" d="M 728 651 L 946.16162109375 651" stroke-miterlimit="10"/></g><g transform="translate(-22,-30) scale(1,1)"><g><path fill="none" stroke="none"/><text fill="#000000" stroke="none" font-family="Arial" font-size="13px" font-style="italic" font-weight="bold" text-decoration="none" x="807.3388671875" y="635.5">MsgTalker</text></g></g><g transform="translate(-22,-30) scale(1,1)"><g><path fill="none" stroke="none"/><text fill="#000000" stroke="none" font-family="Arial" font-size="13px" font-style="italic" font-weight="normal" text-decoration="none" x="733" y="668.5">+GetKeyword()</text></g></g><g transform="translate(-22,-30) scale(1,1)"><g><path fill="none" stroke="none"/><text fill="#000000" stroke="none" font-family="Arial" font-size="13px" font-style="italic" font-weight="normal" text-decoration="none" x="733" y="683.5">+GetURL()</text></g></g><g transform="translate(-22,-30) scale(1,1)"><g><path fill="none" stroke="none"/><text fill="#000000" stroke="none" font-family="Arial" font-size="13px" font-style="italic" font-weight="normal" text-decoration="none" x="733" y="698.5">+GetPostData()</text></g></g><g transform="translate(-22,-30) scale(1,1)"><g><path fill="none" stroke="none"/><text fill="#000000" stroke="none" font-family="Arial" font-size="13px" font-style="italic" font-weight="normal" text-decoration="none" x="733" y="713.5">+SetPostData(postData)</text></g></g><g transform="translate(-22,-30) scale(1,1)"><g><path fill="none" stroke="none"/><text fill="#000000" stroke="none" font-family="Arial" font-size="13px" font-style="italic" font-weight="normal" text-decoration="none" x="733" y="728.5">+ExecuteKeyword(userMsg, userID)</text></g></g><g transform="translate(-22,-30) scale(1,1)"><rect fill="#C0C0C0" stroke="none" x="967" y="631" width="72.2353515625" height="87" opacity="0.2"/></g><g transform="translate(-22,-30) scale(1,1)"><rect fill="#ffffff" stroke="none" x="960" y="624" width="72.2353515625" height="87"/></g><g transform="translate(-22,-30) scale(1,1)"><path fill="none" stroke="#000000" d="M 960 624 L 1032.2353515625 624 L 1032.2353515625 711 L 960 711 L 960 624 Z Z" stroke-miterlimit="10"/></g><g transform="translate(-22,-30) scale(1,1)"><path fill="none" stroke="#000000" d="M 960 649 L 1032.2353515625 649" stroke-miterlimit="10"/></g><g transform="translate(-22,-30) scale(1,1)"><path fill="none" stroke="#000000" d="M 960 702 L 1032.2353515625 702" stroke-miterlimit="10"/></g><g transform="translate(-22,-30) scale(1,1)"><g><path fill="none" stroke="none"/><text fill="#000000" stroke="none" font-family="Arial" font-size="13px" font-style="normal" font-weight="bold" text-decoration="none" x="983.838134765625" y="643.5">Msg</text></g></g><g transform="translate(-22,-30) scale(1,1)"><g><path fill="none" stroke="none"/><text fill="#000000" stroke="none" font-family="Arial" font-size="13px" font-style="normal" font-weight="normal" text-decoration="none" x="965" y="666.5">-Keyword</text></g></g><g transform="translate(-22,-30) scale(1,1)"><g><path fill="none" stroke="none"/><text fill="#000000" stroke="none" font-family="Arial" font-size="13px" font-style="normal" font-weight="normal" text-decoration="none" x="965" y="681.5">-Url</text></g></g><g transform="translate(-22,-30) scale(1,1)"><g><path fill="none" stroke="none"/><text fill="#000000" stroke="none" font-family="Arial" font-size="13px" font-style="normal" font-weight="normal" text-decoration="none" x="965" y="696.5">-PostData</text></g></g><g transform="translate(-22,-30) scale(1,1)"><rect fill="#C0C0C0" stroke="none" x="1055" y="631" width="296.22509765625" height="57" opacity="0.2"/></g><g transform="translate(-22,-30) scale(1,1)"><rect fill="#ffffff" stroke="none" x="1048" y="624" width="296.22509765625" height="57"/></g><g transform="translate(-22,-30) scale(1,1)"><path fill="none" stroke="#000000" d="M 1048 624 L 1344.22509765625 624 L 1344.22509765625 681 L 1048 681 L 1048 624 Z Z" stroke-miterlimit="10"/></g><g transform="translate(-22,-30) scale(1,1)"><path fill="none" stroke="#000000" d="M 1048 649 L 1344.22509765625 649" stroke-miterlimit="10"/></g><g transform="translate(-22,-30) scale(1,1)"><path fill="none" stroke="#000000" d="M 1048 659 L 1344.22509765625 659" stroke-miterlimit="10"/></g><g transform="translate(-22,-30) scale(1,1)"><g><path fill="none" stroke="none"/><text fill="#000000" stroke="none" font-family="Arial" font-size="13px" font-style="normal" font-weight="bold" text-decoration="none" x="1155.658935546875" y="643.5">MsgTalkerImp</text></g></g><g transform="translate(-22,-30) scale(1,1)"><g><path fill="none" stroke="none"/><text fill="#000000" stroke="none" font-family="Arial" font-size="13px" font-style="normal" font-weight="normal" text-decoration="none" x="1053" y="676.5">+CompareKeyword(info, keyword, needFullEqual)</text></g></g><g transform="translate(-22,-30) scale(1,1)"><rect fill="#C0C0C0" stroke="none" x="927" y="503" width="129.5927734375" height="44" opacity="0.2"/></g><g transform="translate(-22,-30) scale(1,1)"><rect fill="#ffffff" stroke="none" x="920" y="496" width="129.5927734375" height="44"/></g><g transform="translate(-22,-30) scale(1,1)"><path fill="none" stroke="#000000" d="M 920 496 L 1049.5927734375 496 L 1049.5927734375 540 L 920 540 L 920 496 Z Z" stroke-miterlimit="10"/></g><g transform="translate(-22,-30) scale(1,1)"><path fill="none" stroke="#000000" d="M 920 521 L 1049.5927734375 521" stroke-miterlimit="10"/></g><g transform="translate(-22,-30) scale(1,1)"><path fill="none" stroke="#000000" d="M 920 531 L 1049.5927734375 531" stroke-miterlimit="10"/></g><g transform="translate(-22,-30) scale(1,1)"><g><path fill="none" stroke="none"/><text fill="#000000" stroke="none" font-family="Arial" font-size="13px" font-style="normal" font-weight="bold" text-decoration="none" x="930.59375" y="515.5">LinkAccountButton</text></g></g><g transform="translate(-22,-30) scale(1,1)"><path fill="none" stroke="#000000" d="M 984 540 L 984 624" stroke-miterlimit="10"/></g><g transform="translate(-22,-30) scale(1,1)"><path fill="#FFFFFF" stroke="none" d="M 975.580964487968 603.6746502847517 L 984 624 L 992.419035512032 603.6746502847517"/></g><g transform="translate(-22,-30) scale(1,1)"><path fill="none" stroke="#000000" d="M 975.580964487968 603.6746502847517 L 984 624 L 992.419035512032 603.6746502847517 L 975.580964487968 603.6746502847517" stroke-miterlimit="10"/></g><g transform="translate(-22,-30) scale(1,1)"><path fill="none" stroke="#000000" d="M 984 540 L 984 584 L 848 584 L 848 616" stroke-miterlimit="10"/></g><g transform="translate(-22,-30) scale(1,1)"><path fill="#FFFFFF" stroke="none" d="M 839.580964487968 595.6746502847517 L 848 616 L 856.419035512032 595.6746502847517"/></g><g transform="translate(-22,-30) scale(1,1)"><path fill="none" stroke="#000000" d="M 839.580964487968 595.6746502847517 L 848 616 L 856.419035512032 595.6746502847517 L 839.580964487968 595.6746502847517" stroke-miterlimit="10"/></g><g transform="translate(-22,-30) scale(1,1)"><path fill="none" stroke="#000000" d="M 984 540 L 984 584 L 1136 584 L 1136 624" stroke-miterlimit="10"/></g><g transform="translate(-22,-30) scale(1,1)"><path fill="#FFFFFF" stroke="none" d="M 1127.580964487968 603.6746502847517 L 1136 624 L 1144.419035512032 603.6746502847517"/></g><g transform="translate(-22,-30) scale(1,1)"><path fill="none" stroke="#000000" d="M 1127.580964487968 603.6746502847517 L 1136 624 L 1144.419035512032 603.6746502847517 L 1127.580964487968 603.6746502847517" stroke-miterlimit="10"/></g><g transform="translate(-22,-30) scale(1,1)"><path fill="none" stroke="#000000" d="M 336 424 L 336 256 L 480 256 L 480 84" stroke-miterlimit="10"/></g><g transform="translate(-22,-30) scale(1,1)"><path fill="#000000" stroke="none" d="M 484.209517756016 94.16267485762415 L 480 84 L 475.790482243984 94.16267485762415 L 480 106"/></g><g transform="translate(-22,-30) scale(1,1)"><path fill="none" stroke="#000000" d="M 484.209517756016 94.16267485762415 L 480 84 L 475.790482243984 94.16267485762415 L 480 106 L 484.209517756016 94.16267485762415" stroke-miterlimit="10"/></g><g transform="translate(-22,-30) scale(1,1)"><path fill="none" stroke="#000000" d="M 632 416 L 632 256 L 481 256 L 481 84" stroke-miterlimit="10"/></g><g transform="translate(-22,-30) scale(1,1)"><path fill="#000000" stroke="none" d="M 485.209517756016 94.16267485762415 L 481 84 L 476.790482243984 94.16267485762415 L 481 106"/></g><g transform="translate(-22,-30) scale(1,1)"><path fill="none" stroke="#000000" d="M 485.209517756016 94.16267485762415 L 481 84 L 476.790482243984 94.16267485762415 L 481 106 L 485.209517756016 94.16267485762415" stroke-miterlimit="10"/></g><g transform="translate(-22,-30) scale(1,1)"><path fill="none" stroke="#000000" d="M 588 544 L 744 544 L 744 616" stroke-miterlimit="10" stroke-dasharray="3"/></g><g transform="translate(-22,-30) scale(1,1)"><path fill="none" stroke="#000000" d="M 739.790482243984 605.8373251423759 L 744 616 L 748.209517756016 605.8373251423759" stroke-miterlimit="10"/></g><g transform="translate(-22,-30) scale(1,1)"><path fill="none" stroke="#000000" d="M 368 468 L 368 488 L 752 488 L 752 616" stroke-miterlimit="10" stroke-dasharray="3"/></g><g transform="translate(-22,-30) scale(1,1)"><path fill="none" stroke="#000000" d="M 747.790482243984 605.8373251423759 L 752 616 L 756.209517756016 605.8373251423759" stroke-miterlimit="10"/></g><g transform="translate(-22,-30) scale(1,1)"><path fill="none" stroke="#000000" d="M 659 438 L 760 438 L 760 616" stroke-miterlimit="10" stroke-dasharray="3"/></g><g transform="translate(-22,-30) scale(1,1)"><path fill="none" stroke="#000000" d="M 755.790482243984 605.8373251423759 L 760 616 L 764.209517756016 605.8373251423759" stroke-miterlimit="10"/></g><g transform="translate(-22,-30) scale(1,1)"><rect fill="#C0C0C0" stroke="none" x="815" y="783" width="179.94873046875" height="44" opacity="0.2"/></g><g transform="translate(-22,-30) scale(1,1)"><rect fill="#ffffff" stroke="none" x="808" y="776" width="179.94873046875" height="44"/></g><g transform="translate(-22,-30) scale(1,1)"><path fill="none" stroke="#000000" d="M 808 776 L 987.94873046875 776 L 987.94873046875 820 L 808 820 L 808 776 Z Z" stroke-miterlimit="10"/></g><g transform="translate(-22,-30) scale(1,1)"><path fill="none" stroke="#000000" d="M 808 801 L 987.94873046875 801" stroke-miterlimit="10"/></g><g transform="translate(-22,-30) scale(1,1)"><path fill="none" stroke="#000000" d="M 808 811 L 987.94873046875 811" stroke-miterlimit="10"/></g><g transform="translate(-22,-30) scale(1,1)"><g><path fill="none" stroke="none"/><text fill="#000000" stroke="none" font-family="Arial" font-size="13px" font-style="normal" font-weight="bold" text-decoration="none" x="818.495361328125" y="795.5">ChatBotBaseTextMsgStruct</text></g></g><g transform="translate(-22,-30) scale(1,1)"><rect fill="#C0C0C0" stroke="none" x="599" y="783" width="196.052734375" height="44" opacity="0.2"/></g><g transform="translate(-22,-30) scale(1,1)"><rect fill="#ffffff" stroke="none" x="592" y="776" width="196.052734375" height="44"/></g><g transform="translate(-22,-30) scale(1,1)"><path fill="none" stroke="#000000" d="M 592 776 L 788.052734375 776 L 788.052734375 820 L 592 820 L 592 776 Z Z" stroke-miterlimit="10"/></g><g transform="translate(-22,-30) scale(1,1)"><path fill="none" stroke="#000000" d="M 592 801 L 788.052734375 801" stroke-miterlimit="10"/></g><g transform="translate(-22,-30) scale(1,1)"><path fill="none" stroke="#000000" d="M 592 811 L 788.052734375 811" stroke-miterlimit="10"/></g><g transform="translate(-22,-30) scale(1,1)"><g><path fill="none" stroke="none"/><text fill="#000000" stroke="none" font-family="Arial" font-size="13px" font-style="normal" font-weight="bold" text-decoration="none" x="603.676025390625" y="795.5">ChatBotBaseButtonMsgStruct</text></g></g><g transform="translate(-22,-30) scale(1,1)"><path fill="none" stroke="#000000" d="M 514 592 L 514 744 L 656 744 L 656 776" stroke-miterlimit="10" stroke-dasharray="3"/></g><g transform="translate(-22,-30) scale(1,1)"><path fill="none" stroke="#000000" d="M 651.790482243984 765.8373251423759 L 656 776 L 660.209517756016 765.8373251423759" stroke-miterlimit="10"/></g><g transform="translate(-22,-30) scale(1,1)"><path fill="none" stroke="#000000" d="M 520 592 L 520 744 L 880 744 L 880 776" stroke-miterlimit="10" stroke-dasharray="3"/></g><g transform="translate(-22,-30) scale(1,1)"><path fill="none" stroke="#000000" d="M 875.790482243984 765.8373251423759 L 880 776 L 884.209517756016 765.8373251423759" stroke-miterlimit="10"/></g><g transform="translate(-22,-30) scale(1,1)"><path fill="none" stroke="#000000" d="M 984 496 L 984 256 L 481 256 L 481 84" stroke-miterlimit="10"/></g><g transform="translate(-22,-30) scale(1,1)"><path fill="#000000" stroke="none" d="M 485.209517756016 94.16267485762415 L 481 84 L 476.790482243984 94.16267485762415 L 481 106"/></g><g transform="translate(-22,-30) scale(1,1)"><path fill="none" stroke="#000000" d="M 485.209517756016 94.16267485762415 L 481 84 L 476.790482243984 94.16267485762415 L 481 106 L 485.209517756016 94.16267485762415" stroke-miterlimit="10"/></g><g transform="translate(-22,-30) scale(1,1)"><rect fill="#C0C0C0" stroke="none" x="1095" y="503" width="195.1259765625" height="44" opacity="0.2"/></g><g transform="translate(-22,-30) scale(1,1)"><rect fill="#ffffff" stroke="none" x="1088" y="496" width="195.1259765625" height="44"/></g><g transform="translate(-22,-30) scale(1,1)"><path fill="none" stroke="#000000" d="M 1088 496 L 1283.1259765625 496 L 1283.1259765625 540 L 1088 540 L 1088 496 Z Z" stroke-miterlimit="10"/></g><g transform="translate(-22,-30) scale(1,1)"><path fill="none" stroke="#000000" d="M 1088 521 L 1283.1259765625 521" stroke-miterlimit="10"/></g><g transform="translate(-22,-30) scale(1,1)"><path fill="none" stroke="#000000" d="M 1088 531 L 1283.1259765625 531" stroke-miterlimit="10"/></g><g transform="translate(-22,-30) scale(1,1)"><g><path fill="none" stroke="none"/><text fill="#000000" stroke="none" font-family="Arial" font-size="13px" font-style="normal" font-weight="bold" text-decoration="none" x="1099.5712890625" y="515.5">PlainApplianceTextComposite</text></g></g><g transform="translate(-22,-30) scale(1,1)"><path fill="none" stroke="#000000" d="M 1134 540 L 1134 568 L 880 568 L 880 616" stroke-miterlimit="10"/></g><g transform="translate(-22,-30) scale(1,1)"><path fill="#FFFFFF" stroke="none" d="M 871.580964487968 595.6746502847517 L 880 616 L 888.419035512032 595.6746502847517"/></g><g transform="translate(-22,-30) scale(1,1)"><path fill="none" stroke="#000000" d="M 871.580964487968 595.6746502847517 L 880 616 L 888.419035512032 595.6746502847517 L 871.580964487968 595.6746502847517" stroke-miterlimit="10"/></g><g transform="translate(-22,-30) scale(1,1)"><path fill="none" stroke="#000000" d="M 1156 540 L 1156 576 L 1008 576 L 1008 624" stroke-miterlimit="10"/></g><g transform="translate(-22,-30) scale(1,1)"><path fill="#FFFFFF" stroke="none" d="M 999.580964487968 603.6746502847517 L 1008 624 L 1016.419035512032 603.6746502847517"/></g><g transform="translate(-22,-30) scale(1,1)"><path fill="none" stroke="#000000" d="M 999.580964487968 603.6746502847517 L 1008 624 L 1016.419035512032 603.6746502847517 L 999.580964487968 603.6746502847517" stroke-miterlimit="10"/></g><g transform="translate(-22,-30) scale(1,1)"><path fill="none" stroke="#000000" d="M 1192 540 L 1192 624" stroke-miterlimit="10"/></g><g transform="translate(-22,-30) scale(1,1)"><path fill="#FFFFFF" stroke="none" d="M 1183.580964487968 603.6746502847517 L 1192 624 L 1200.419035512032 603.6746502847517"/></g><g transform="translate(-22,-30) scale(1,1)"><path fill="none" stroke="#000000" d="M 1183.580964487968 603.6746502847517 L 1192 624 L 1200.419035512032 603.6746502847517 L 1183.580964487968 603.6746502847517" stroke-miterlimit="10"/></g><g transform="translate(-22,-30) scale(1,1)"><path fill="none" stroke="#000000" d="M 800 616 L 800 560 L 1104 560 L 1104 540" stroke-miterlimit="10"/></g><g transform="translate(-22,-30) scale(1,1)"><path fill="#000000" stroke="none" d="M 1108.2095177560159 550.1626748576241 L 1104 540 L 1099.7904822439841 550.1626748576241 L 1104 562"/></g><g transform="translate(-22,-30) scale(1,1)"><path fill="none" stroke="#000000" d="M 1108.2095177560159 550.1626748576241 L 1104 540 L 1099.7904822439841 550.1626748576241 L 1104 562 L 1108.2095177560159 550.1626748576241" stroke-miterlimit="10"/></g><g transform="translate(-22,-30) scale(1,1)"><path fill="none" stroke="#000000" d="M 1208 496 L 1208 256 L 481 256 L 481 84" stroke-miterlimit="10"/></g><g transform="translate(-22,-30) scale(1,1)"><path fill="#000000" stroke="none" d="M 485.209517756016 94.16267485762415 L 481 84 L 476.790482243984 94.16267485762415 L 481 106"/></g><g transform="translate(-22,-30) scale(1,1)"><path fill="none" stroke="#000000" d="M 485.209517756016 94.16267485762415 L 481 84 L 476.790482243984 94.16267485762415 L 481 106 L 485.209517756016 94.16267485762415" stroke-miterlimit="10"/></g><g transform="translate(-22,-30) scale(1,1)"><rect fill="#C0C0C0" stroke="none" x="87" y="159" width="117.01806640625" height="87" opacity="0.2"/></g><g transform="translate(-22,-30) scale(1,1)"><rect fill="#ffffff" stroke="none" x="80" y="152" width="117.01806640625" height="87"/></g><g transform="translate(-22,-30) scale(1,1)"><path fill="none" stroke="#000000" d="M 80 152 L 197.01806640625 152 L 197.01806640625 239 L 80 239 L 80 152 Z Z" stroke-miterlimit="10"/></g><g transform="translate(-22,-30) scale(1,1)"><path fill="none" stroke="#000000" d="M 80 177 L 197.01806640625 177" stroke-miterlimit="10"/></g><g transform="translate(-22,-30) scale(1,1)"><path fill="none" stroke="#000000" d="M 80 187 L 197.01806640625 187" stroke-miterlimit="10"/></g><g transform="translate(-22,-30) scale(1,1)"><g><path fill="none" stroke="none"/><text fill="#000000" stroke="none" font-family="Arial" font-size="13px" font-style="italic" font-weight="bold" text-decoration="none" x="116.82861328125" y="171.5">Subject</text></g></g><g transform="translate(-22,-30) scale(1,1)"><g><path fill="none" stroke="none"/><text fill="#000000" stroke="none" font-family="Arial" font-size="13px" font-style="italic" font-weight="normal" text-decoration="none" x="85" y="204.5">+Attach(observer)</text></g></g><g transform="translate(-22,-30) scale(1,1)"><g><path fill="none" stroke="none"/><text fill="#000000" stroke="none" font-family="Arial" font-size="13px" font-style="italic" font-weight="normal" text-decoration="none" x="85" y="219.5">+Detach(observer)</text></g></g><g transform="translate(-22,-30) scale(1,1)"><g><path fill="none" stroke="none"/><text fill="#000000" stroke="none" font-family="Arial" font-size="13px" font-style="italic" font-weight="normal" text-decoration="none" x="85" y="234.5">+Notify()</text></g></g><g transform="translate(-22,-30) scale(1,1)"><rect fill="#C0C0C0" stroke="none" x="239" y="159" width="199.39794921875" height="57" opacity="0.2"/></g><g transform="translate(-22,-30) scale(1,1)"><rect fill="#ffffff" stroke="none" x="232" y="152" width="199.39794921875" height="57"/></g><g transform="translate(-22,-30) scale(1,1)"><path fill="none" stroke="#000000" d="M 232 152 L 431.39794921875 152 L 431.39794921875 209 L 232 209 L 232 152 Z Z" stroke-miterlimit="10"/></g><g transform="translate(-22,-30) scale(1,1)"><path fill="none" stroke="#000000" d="M 232 177 L 431.39794921875 177" stroke-miterlimit="10"/></g><g transform="translate(-22,-30) scale(1,1)"><path fill="none" stroke="#000000" d="M 232 187 L 431.39794921875 187" stroke-miterlimit="10"/></g><g transform="translate(-22,-30) scale(1,1)"><g><path fill="none" stroke="none"/><text fill="#000000" stroke="none" font-family="Arial" font-size="13px" font-style="normal" font-weight="bold" text-decoration="none" x="304.968994140625" y="171.5">Observer</text></g></g><g transform="translate(-22,-30) scale(1,1)"><g><path fill="none" stroke="none"/><text fill="#000000" stroke="none" font-family="Arial" font-size="13px" font-style="normal" font-weight="normal" text-decoration="none" x="237" y="204.5">+Update(chatBotBaseMsgStruct)</text></g></g><g transform="translate(-22,-30) scale(1,1)"><rect fill="#C0C0C0" stroke="none" x="39" y="335" width="207.34521484375" height="72" opacity="0.2"/></g><g transform="translate(-22,-30) scale(1,1)"><rect fill="#ffffff" stroke="none" x="32" y="328" width="207.34521484375" height="72"/></g><g transform="translate(-22,-30) scale(1,1)"><path fill="none" stroke="#000000" d="M 32 328 L 239.34521484375 328 L 239.34521484375 400 L 32 400 L 32 328 Z Z" stroke-miterlimit="10"/></g><g transform="translate(-22,-30) scale(1,1)"><path fill="none" stroke="#000000" d="M 32 353 L 239.34521484375 353" stroke-miterlimit="10"/></g><g transform="translate(-22,-30) scale(1,1)"><path fill="none" stroke="#000000" d="M 32 363 L 239.34521484375 363" stroke-miterlimit="10"/></g><g transform="translate(-22,-30) scale(1,1)"><g><path fill="none" stroke="none"/><text fill="#000000" stroke="none" font-family="Arial" font-size="13px" font-style="normal" font-weight="bold" text-decoration="none" x="99.1767578125" y="347.5">PushSubject</text></g></g><g transform="translate(-22,-30) scale(1,1)"><g><path fill="none" stroke="none"/><text fill="#000000" stroke="none" font-family="Arial" font-size="13px" font-style="normal" font-weight="normal" text-decoration="none" x="37" y="380.5">+GetState()</text></g></g><g transform="translate(-22,-30) scale(1,1)"><g><path fill="none" stroke="none"/><text fill="#000000" stroke="none" font-family="Arial" font-size="13px" font-style="normal" font-weight="normal" text-decoration="none" x="37" y="395.5">+SetState(chatBotBaseMsgStruct)</text></g></g><g transform="translate(-22,-30) scale(1,1)"><path fill="none" stroke="#000000" d="M 136 327 L 137 240" stroke-miterlimit="10"/></g><g transform="translate(-22,-30) scale(1,1)"><path fill="#FFFFFF" stroke="none" d="M 145.1848701367997 260.42077130873673 L 137 240 L 128.34791130739492 260.22724304632976"/></g><g transform="translate(-22,-30) scale(1,1)"><path fill="none" stroke="#000000" d="M 145.1848701367997 260.42077130873673 L 137 240 L 128.34791130739492 260.22724304632976 L 145.1848701367997 260.42077130873673" stroke-miterlimit="10"/></g><g transform="translate(-22,-30) scale(1,1)"><path fill="none" stroke="#000000" d="M 328 448 L 272 448 L 272 209" stroke-miterlimit="10"/></g><g transform="translate(-22,-30) scale(1,1)"><path fill="#FFFFFF" stroke="none" d="M 280.419035512032 229.3253497152483 L 272 209 L 263.580964487968 229.3253497152483"/></g><g transform="translate(-22,-30) scale(1,1)"><path fill="none" stroke="#000000" d="M 280.419035512032 229.3253497152483 L 272 209 L 263.580964487968 229.3253497152483 L 280.419035512032 229.3253497152483" stroke-miterlimit="10"/></g><g transform="translate(-22,-30) scale(1,1)"><path fill="none" stroke="#000000" d="M 584 416 L 296 416 L 296 209" stroke-miterlimit="10"/></g><g transform="translate(-22,-30) scale(1,1)"><path fill="#FFFFFF" stroke="none" d="M 304.419035512032 229.3253497152483 L 296 209 L 287.580964487968 229.3253497152483"/></g><g transform="translate(-22,-30) scale(1,1)"><path fill="none" stroke="#000000" d="M 304.419035512032 229.3253497152483 L 296 209 L 287.580964487968 229.3253497152483 L 304.419035512032 229.3253497152483" stroke-miterlimit="10"/></g><g transform="translate(-22,-30) scale(1,1)"><path fill="none" stroke="#000000" d="M 232 190 L 197 190" stroke-miterlimit="10"/></g><g transform="translate(-22,-30) scale(1,1)"><path fill="#000000" stroke="none" d="M 207.16267485762415 185.790482243984 L 197 190 L 207.16267485762415 194.209517756016 L 219 190"/></g><g transform="translate(-22,-30) scale(1,1)"><path fill="none" stroke="#000000" d="M 207.16267485762415 185.790482243984 L 197 190 L 207.16267485762415 194.209517756016 L 219 190 L 207.16267485762415 185.790482243984" stroke-miterlimit="10"/></g><g transform="translate(-22,-30) scale(1,1)"><path fill="none" stroke="#000000" d="M 608 416 L 608 392 L 239 392" stroke-miterlimit="10"/></g><g transform="translate(-22,-30) scale(1,1)"><path fill="none" stroke="#000000" d="M 249.16267485762415 387.790482243984 L 239 392 L 249.16267485762415 396.209517756016" stroke-miterlimit="10"/></g><g transform="translate(-22,-30) scale(1,1)"><path fill="none" stroke="#000000" d="M 328 431 L 135 431 L 135 400" stroke-miterlimit="10"/></g><g transform="translate(-22,-30) scale(1,1)"><path fill="none" stroke="#000000" d="M 139.209517756016 410.16267485762415 L 135 400 L 130.790482243984 410.16267485762415" stroke-miterlimit="10"/></g><g transform="translate(-22,-30) scale(1,1)"><path fill="none" stroke="#000000" d="M 48 328 L 48 64 L 456 64" stroke-miterlimit="10"/></g><g transform="translate(-22,-30) scale(1,1)"><path fill="#000000" stroke="none" d="M 445.83732514237585 68.20951775601598 L 456 64 L 445.83732514237585 59.790482243984016 L 434 64"/></g><g transform="translate(-22,-30) scale(1,1)"><path fill="none" stroke="#000000" d="M 445.83732514237585 68.20951775601598 L 456 64 L 445.83732514237585 59.790482243984016 L 434 64 L 445.83732514237585 68.20951775601598" stroke-miterlimit="10"/></g></g></svg>